# xmcd CD database file
#
# Track frame offsets:
#	150
#	15377
#	27379
#	40281
#	56858
#	70135
#	86037
#	101489
#	114316
#	140643
#	151595
#	170197
#	186249
#	203576
#	216403
#	231930
#	246857
#	259534
#
# Disc length: 3617 seconds
#
# Revision: 1
# Processed by: cddbd v1.5.2PL0 Copyright (c) Steve Scherf et al.
# Submitted via: CDex 1.51
#
DISCID=fd0e1f12
DTITLE=Brian Young - The Best Of Brian young
DYEAR=1900
DGENRE=Country
TTITLE0=Thistles On The Hillside
TTITLE1=Have a Bloody Go
TTITLE2=Black Man Jacky Jacky
TTITLE3=No Indispensable Man
TTITLE4=Dark Eyed Brothers
TTITLE5=The Horse That Could Do Nothing Right
TTITLE6=Barbie Doll Song
TTITLE7=Home Made Didgeridoo
TTITLE8=Lost
TTITLE9=Wobbly Boot Hotel
TTITLE10=The House Where The Wind Blows Cold
TTITLE11=Song of Maytown
TTITLE12=Walk Away
TTITLE13=Stan Coster The Man
TTITLE14=You Ride On
TTITLE15=The Whaler
TTITLE16=Please Forgive Me
TTITLE17=Migilo Man.
EXTD=
EXTT0=
EXTT1=
EXTT2=
EXTT3=
EXTT4=
EXTT5=
EXTT6=
EXTT7=
EXTT8=
EXTT9=
EXTT10=
EXTT11=
EXTT12=
EXTT13=
EXTT14=
EXTT15=
EXTT16=
EXTT17=
PLAYORDER=
